<svg id="Layer_1" data-name="Layer 1" xmlns="http://www.w3.org/2000/svg" viewBox="0 0 15 15"><defs><style>.cls-1{fill:#fff;}.cls-2{fill:#d41d29;}</style></defs><title>favico</title><path class="cls-1" d="M7.47,14.77a1.71,1.71,0,0,1-.86-.23L2.16,12a1.72,1.72,0,0,1-.85-1.48V1.06A.68.68,0,0,1,2,.38l.18,0,5,1.34a1,1,0,0,0,.53,0l5-1.34.18,0a.68.68,0,0,1,.68.68v9.43A1.72,1.72,0,0,1,12.77,12L8.32,14.54A1.71,1.71,0,0,1,7.47,14.77Z"/><path class="cls-2" d="M7.11,2.07,2.08.73a.34.34,0,0,0-.43.33v9.43a1.37,1.37,0,0,0,.68,1.19l4.45,2.57a1.37,1.37,0,0,0,1.37,0l4.45-2.57a1.37,1.37,0,0,0,.68-1.19V1.06a.34.34,0,0,0-.43-.33l-5,1.34A1.37,1.37,0,0,1,7.11,2.07Z"/><path class="cls-1" d="M6.49,9l.66,1.15-.76-.44a1.37,1.37,0,0,1-.5-.5l-.48-.83ZM5.66,7.52,4,6.59l.48.83a1.37,1.37,0,0,0,.5.5l1.29.75Zm2.42-.73L7.25,8.22l.4.68.81-1.4A3.08,3.08,0,0,1,9.58,6.38l2.68-1.55-2.59.7a2.05,2.05,0,0,1-1.06,0l-.52-.14L8,5.72l-.33-.09L7.57,6l-.33-.09-.09.33,1.14.31,0,0A1.37,1.37,0,0,0,8.08,6.79ZM4.82,6.08,2.68,4.84l.48.83a1.37,1.37,0,0,0,.5.5L5.48,7.22Zm2.81,3.2-1.14-2A1.37,1.37,0,0,0,6,6.75l-.86-.5,2.35,4.06L8.94,7.75a5.47,5.47,0,0,1,.83-1.09l.43-.44-.58.33a2.74,2.74,0,0,0-1,1Z"/></svg>